<?xml version="1.0" encoding="UTF-8"?>
<svg version="1.1" xmlns="http://www.w3.org/2000/svg" width="93" height="93">
<path d="M0 0 C11.46550574 7.88156551 18.85816275 17.57676274 22.07421875 31.234375 C23.61210394 46.17310283 21.60905792 58.70561444 12.20703125 70.76171875 C4.66552893 79.50488902 -5.29594352 86.24301985 -17.07202148 87.45532227 C-32.85551039 88.25425008 -44.66038668 85.81400444 -56.92578125 75.234375 C-65.09193012 67.54677171 -70.68828416 57.1450875 -71.26171875 45.81640625 C-71.57142328 29.65790902 -68.32680553 18.22060361 -56.98046875 6.16796875 C-41.9730066 -7.89772958 -17.63426916 -10.64177525 0 0 Z " fill="#FBFBFA" transform="translate(70.92578125,5.765625)"/>
<path d="M0 0 C1.25668488 0.00636726 1.25668488 0.00636726 2.53875732 0.01286316 C5.20846002 0.02962467 7.87740137 0.06727164 10.546875 0.10546875 C12.35936408 0.12051888 14.17186502 0.13420672 15.984375 0.14648438 C20.42216731 0.17951986 24.85939217 0.23128432 29.296875 0.29296875 C29.296875 3.26296875 29.296875 6.23296875 29.296875 9.29296875 C11.971875 9.78796875 11.971875 9.78796875 -5.703125 10.29296875 C-6.033125 25.80296875 -6.363125 41.31296875 -6.703125 57.29296875 C-9.673125 57.29296875 -12.643125 57.29296875 -15.703125 57.29296875 C-15.77732365 50.40619257 -15.83175081 43.51964948 -15.86791992 36.63256836 C-15.88299928 34.29007921 -15.90346578 31.94761825 -15.92944336 29.60522461 C-15.96586321 26.23674558 -15.98286013 22.86864011 -15.99609375 19.5 C-16.01157761 18.45399124 -16.02706146 17.40798248 -16.04301453 16.33027649 C-16.04450285 9.88917073 -15.49983592 6.3460033 -11.05957031 1.4987793 C-7.48034156 -0.33273861 -3.92437017 -0.07496607 0 0 Z " fill="#E3611F" transform="translate(32.703125,11.70703125)"/>
<path d="M0 0 C2.97 0 5.94 0 9 0 C9.07421336 6.60194443 9.12863267 13.20364547 9.16479492 19.8059082 C9.17987182 22.05139394 9.20033653 24.29685029 9.22631836 26.54223633 C9.26274918 29.77172099 9.27973755 33.00081594 9.29296875 36.23046875 C9.30845261 37.23272995 9.32393646 38.23499115 9.33988953 39.2676239 C9.34199169 47.99381244 9.34199169 47.99381244 6 52 C2.62607893 54.49311867 -0.66239024 54.2067522 -4.75 54.125 C-5.92046875 54.10695312 -7.0909375 54.08890625 -8.296875 54.0703125 C-9.18890625 54.04710937 -10.0809375 54.02390625 -11 54 C-11 51.03 -11 48.06 -11 45 C-6.05 44.505 -6.05 44.505 -1 44 C-0.67 29.48 -0.34 14.96 0 0 Z " fill="#E56020" transform="translate(70,28)"/>
<path d="M0 0 C0.74958984 0.00902344 1.49917969 0.01804687 2.27148438 0.02734375 C4.11862654 0.05087422 5.96560412 0.08674439 7.8125 0.125 C7.8125 1.775 7.8125 3.425 7.8125 5.125 C3.1925 5.455 -1.4275 5.785 -6.1875 6.125 C-6.8475 9.095 -7.5075 12.065 -8.1875 15.125 C-2.9075 15.125 2.3725 15.125 7.8125 15.125 C7.8125 16.775 7.8125 18.425 7.8125 20.125 C2.5325 20.125 -2.7475 20.125 -8.1875 20.125 C-8.1875 31.015 -8.1875 41.905 -8.1875 53.125 C-9.8375 53.125 -11.4875 53.125 -13.1875 53.125 C-13.1875 42.235 -13.1875 31.345 -13.1875 20.125 C-15.4975 20.125 -17.8075 20.125 -20.1875 20.125 C-20.1875 18.475 -20.1875 16.825 -20.1875 15.125 C-17.8775 15.125 -15.5675 15.125 -13.1875 15.125 C-13.21070313 14.52171875 -13.23390625 13.9184375 -13.2578125 13.296875 C-13.27585937 12.49765625 -13.29390625 11.6984375 -13.3125 10.875 C-13.33570313 10.08609375 -13.35890625 9.2971875 -13.3828125 8.484375 C-13.16461178 5.84851026 -12.61717069 4.34051617 -11.1875 2.125 C-7.39586973 -0.40275351 -4.37875969 -0.09943035 0 0 Z " fill="#3A3C42" transform="translate(54.1875,28.875)"/>
<path d="M0 0 C0.845625 0.268125 1.69125 0.53625 2.5625 0.8125 C6.73803181 1.8239469 10.76162845 2.00928844 15.05078125 2.12890625 C16.1055793 2.1600779 16.1055793 2.1600779 17.1816864 2.19187927 C19.41269817 2.25690115 21.64382069 2.31603776 23.875 2.375 C25.39389134 2.41823036 26.91277177 2.46184605 28.43164062 2.50585938 C32.1418112 2.61253334 35.85210421 2.71393221 39.5625 2.8125 C39.5625 3.4725 39.5625 4.1325 39.5625 4.8125 C37.8750769 4.82651855 37.8750769 4.82651855 36.15356445 4.84082031 C31.96924631 4.88077255 27.78565937 4.94654552 23.60180664 5.02001953 C21.79298311 5.04819889 19.98403714 5.06942855 18.17504883 5.08349609 C15.57049006 5.10496814 12.96739866 5.15163811 10.36328125 5.203125 C9.15518547 5.20496796 9.15518547 5.20496796 7.92268372 5.20684814 C4.00180942 5.30852246 1.98485072 5.55088208 -1.42504883 7.66308594 C-4.39775896 10.83811203 -4.56766098 13.47430304 -4.64282227 17.65112305 C-4.66276749 18.6319133 -4.68271271 19.61270355 -4.70326233 20.62321472 C-4.71997482 21.67954605 -4.73668732 22.73587738 -4.75390625 23.82421875 C-4.77468735 24.90758011 -4.79546844 25.99094147 -4.81687927 27.10713196 C-4.88231797 30.57135616 -4.94123353 34.0356568 -5 37.5 C-5.04319061 39.84701315 -5.08680507 42.19401853 -5.13085938 44.54101562 C-5.23799361 50.29809854 -5.33927727 56.05525842 -5.4375 61.8125 C-2.4675 61.8125 0.5025 61.8125 3.5625 61.8125 C3.55464478 59.68470093 3.55464478 59.68470093 3.54663086 57.51391602 C3.52858691 52.27157213 3.51707022 47.029231 3.50756836 41.78686523 C3.50252675 39.51407409 3.49569363 37.2412862 3.48706055 34.96850586 C3.47498739 31.70946449 3.46927013 28.45046583 3.46484375 25.19140625 C3.45968246 24.16849991 3.45452118 23.14559357 3.44920349 22.09169006 C3.44912796 21.15079025 3.44905243 20.20989044 3.44897461 19.24047852 C3.446754 18.40774918 3.44453339 17.57501984 3.44224548 16.71705627 C3.5625 14.8125 3.5625 14.8125 4.5625 13.8125 C7.15609322 13.72398471 9.72289691 13.69724055 12.31640625 13.71484375 C13.09185287 13.7162587 13.8672995 13.71767365 14.66624451 13.71913147 C17.15253494 13.72474655 19.6387366 13.73730154 22.125 13.75 C23.80663933 13.75501306 25.48828006 13.7595763 27.16992188 13.76367188 C31.30081566 13.77472087 35.43164276 13.79199555 39.5625 13.8125 C39.5625 14.1425 39.5625 14.4725 39.5625 14.8125 C28.3425 14.8125 17.1225 14.8125 5.5625 14.8125 C5.5625 30.6525 5.5625 46.4925 5.5625 62.8125 C1.6025 62.8125 -2.3575 62.8125 -6.4375 62.8125 C-8.04459408 61.20540592 -7.56482882 59.48745859 -7.56689453 57.2644043 C-7.57004669 56.29637375 -7.57319885 55.3283432 -7.57644653 54.33097839 C-7.5744223 53.27687271 -7.57239807 52.22276703 -7.5703125 51.13671875 C-7.57126923 50.06001419 -7.57222595 48.98330963 -7.57321167 47.87397766 C-7.57389383 45.58989402 -7.57203708 43.30580846 -7.56787109 41.02172852 C-7.5625389 37.52550889 -7.56780684 34.02941864 -7.57421875 30.53320312 C-7.57355767 28.31770805 -7.57227589 26.10221305 -7.5703125 23.88671875 C-7.57233673 22.83868576 -7.57436096 21.79065277 -7.57644653 20.71086121 C-7.57329437 19.73337418 -7.57014221 18.75588715 -7.56689453 17.7487793 C-7.56609894 16.89019821 -7.56530334 16.03161713 -7.56448364 15.14701843 C-7.44249095 12.90425566 -7.06317472 10.96393372 -6.4375 8.8125 C-7.0975 8.8125 -7.7575 8.8125 -8.4375 8.8125 C-6.99165788 4.47497363 -5.23777152 -0.4029055 0 0 Z " fill="#F7DBCD" transform="translate(22.4375,7.1875)"/>
<path d="M0 0 C11.55 0 23.1 0 35 0 C35 1.98 35 3.96 35 6 C24.11 6 13.22 6 2 6 C2 7.98 2 9.96 2 12 C0.35 11.01 -1.3 10.02 -3 9 C-2.28100082 5.76450369 -1.26436876 3.1609219 0 0 Z " fill="#E6601E" transform="translate(23,14)"/>
<path d="M0 0 C12.54 0 25.08 0 38 0 C38 2.97 38 5.94 38 9 C20.675 9.495 20.675 9.495 3 10 C2.67 25.51 2.34 41.02 2 57 C-0.97 57 -3.94 57 -7 57 C-7.07419865 50.11322382 -7.12862581 43.22668073 -7.16479492 36.33959961 C-7.17987428 33.99711046 -7.20034078 31.6546495 -7.22631836 29.31225586 C-7.26273821 25.94377683 -7.27973513 22.57567136 -7.29296875 19.20703125 C-7.30845261 18.16102249 -7.32393646 17.11501373 -7.33988953 16.03730774 C-7.34196413 7.05892529 -7.34196413 7.05892529 -4 3 C-3.67 3.99 -3.34 4.98 -3 6 C-3.33 6.33 -3.66 6.66 -4 7 C-5.00843369 13.44435851 -5.18063883 19.99694856 -5.31640625 26.5078125 C-5.3475779 27.78505692 -5.3475779 27.78505692 -5.37937927 29.08810425 C-5.44395751 31.76699983 -5.50332583 34.44598017 -5.5625 37.125 C-5.60577282 38.95834156 -5.64938965 40.79167503 -5.69335938 42.625 C-5.79954249 47.08324993 -5.90105841 51.54158372 -6 56 C-3.69 56 -1.38 56 1 56 C1 40.16 1 24.32 1 8 C12.88 8 24.76 8 37 8 C37 5.69 37 3.38 37 1 C24.79 1 12.58 1 0 1 C0 0.67 0 0.34 0 0 Z " fill="#CF6B3D" transform="translate(24,12)"/>
<path d="M0 0 C2.97 0 5.94 0 9 0 C9.07421336 6.60194443 9.12863267 13.20364547 9.16479492 19.8059082 C9.17987182 22.05139394 9.20033653 24.29685029 9.22631836 26.54223633 C9.26274918 29.77172099 9.27973755 33.00081594 9.29296875 36.23046875 C9.30845261 37.23272995 9.32393646 38.23499115 9.33988953 39.2676239 C9.34199169 47.99381244 9.34199169 47.99381244 6 52 C2.62607893 54.49311867 -0.66239024 54.2067522 -4.75 54.125 C-5.92046875 54.10695312 -7.0909375 54.08890625 -8.296875 54.0703125 C-9.18890625 54.04710937 -10.0809375 54.02390625 -11 54 C-11 51.03 -11 48.06 -11 45 C-6.05 44.505 -6.05 44.505 -1 44 C-0.67 29.48 -0.34 14.96 0 0 Z M1 1 C0.67 16.51 0.34 32.02 0 48 C-0.66 47.67 -1.32 47.34 -2 47 C-3.99960012 46.960008 -6.00047242 46.95653201 -8 47 C-9.01111093 50.04913228 -9.01111093 50.04913228 -8 53 C-6.3745692 52.85904936 -4.74965949 52.71207913 -3.125 52.5625 C-2.22007813 52.48128906 -1.31515625 52.40007812 -0.3828125 52.31640625 C2.01110861 52.13010715 2.01110861 52.13010715 4 51 C4 49.68 4 48.36 4 47 C4.99 47 5.98 47 7 47 C8.1650499 44.6699002 8.1209358 43.32752923 8.11352539 40.73388672 C8.11341209 39.41274368 8.11341209 39.41274368 8.11329651 38.06491089 C8.10813522 37.11278717 8.10297394 36.16066345 8.09765625 35.1796875 C8.0962413 34.20589142 8.09482635 33.23209534 8.09336853 32.22879028 C8.08775973 29.11082927 8.07520573 25.9929394 8.0625 22.875 C8.05748613 20.76432395 8.05292303 18.65364678 8.04882812 16.54296875 C8.03778745 11.36195479 8.02104073 6.18098248 8 1 C5.69 1 3.38 1 1 1 Z " fill="#CC6A3A" transform="translate(70,28)"/>
<path d="M0 0 C0.66 0 1.32 0 2 0 C2.05058332 7.2265322 2.08568412 14.45301899 2.10986328 21.6796875 C2.11993983 24.13966579 2.13360131 26.59963206 2.15087891 29.05957031 C2.17505461 32.58922285 2.1864664 36.11871747 2.1953125 39.6484375 C2.20563507 40.75367767 2.21595764 41.85891785 2.22659302 42.99765015 C2.22674408 44.01855743 2.22689514 45.03946472 2.22705078 46.09130859 C2.231492 46.99287689 2.23593323 47.89444519 2.24050903 48.82333374 C2 51 2 51 0 53 C-2.625 53.125 -2.625 53.125 -5 53 C-4.01 52.505 -4.01 52.505 -3 52 C-1.35263149 48.63486165 -0.74140423 45.84349461 -0.68115234 42.11791992 C-0.66128265 41.17732224 -0.64141296 40.23672455 -0.62094116 39.2676239 C-0.60361435 37.7642321 -0.60361435 37.7642321 -0.5859375 36.23046875 C-0.56657135 35.19432938 -0.5472052 34.15819 -0.5272522 33.09065247 C-0.46759643 29.78968471 -0.42112669 26.48868181 -0.375 23.1875 C-0.33680737 20.94594855 -0.29775489 18.70441158 -0.2578125 16.46289062 C-0.16190642 10.97538914 -0.07681801 5.48780009 0 0 Z " fill="#F9D3BE" transform="translate(79,28)"/>
<path d="M0 0 C0.33 0 0.66 0 1 0 C1.02527124 6.24795675 1.04283344 12.49590041 1.05493164 18.74389648 C1.05997298 20.87118014 1.06680591 22.99846031 1.07543945 25.12573242 C1.08751379 28.17627826 1.09323014 31.22677845 1.09765625 34.27734375 C1.10281754 35.23462875 1.10797882 36.19191376 1.11329651 37.1782074 C1.11337204 38.05904495 1.11344757 38.93988251 1.11352539 39.84741211 C1.115746 40.62684677 1.11796661 41.40628143 1.12025452 42.20933533 C1 44 1 44 0 45 C-1.68608966 45.07205511 -3.37500659 45.08386068 -5.0625 45.0625 C-5.98160156 45.05347656 -6.90070312 45.04445312 -7.84765625 45.03515625 C-8.55792969 45.02355469 -9.26820312 45.01195312 -10 45 C-10 47.97 -10 50.94 -10 54 C-6.37 54 -2.74 54 1 54 C1 54.33 1 54.66 1 55 C-3.29 55 -7.58 55 -12 55 C-12.390625 46.69921875 -12.390625 46.69921875 -12 44 C-10.171875 42.08203125 -10.171875 42.08203125 -8 41 C-7.01 41.33 -6.02 41.66 -5 42 C-3.35 42 -1.7 42 0 42 C0 28.14 0 14.28 0 0 Z " fill="#FAD7C2" transform="translate(69,28)"/>
<path d="M0 0 C0.81417892 0.02644089 1.62835785 0.05288177 2.46720886 0.0801239 C5.05573516 0.16756855 7.64280795 0.27682553 10.23046875 0.38671875 C11.99018306 0.45001084 13.74994932 0.51187576 15.50976562 0.57226562 C19.81327719 0.72305764 24.115618 0.89341046 28.41796875 1.07421875 C28.41796875 1.73421875 28.41796875 2.39421875 28.41796875 3.07421875 C27.2877832 3.09403809 26.15759766 3.11385742 24.99316406 3.13427734 C20.79599911 3.21040755 16.59917749 3.29911354 12.40234375 3.39160156 C10.58665754 3.42986066 8.77089634 3.46471892 6.95507812 3.49609375 C4.34347752 3.54181105 1.73239187 3.59979411 -0.87890625 3.66015625 C-1.68946472 3.67170746 -2.50002319 3.68325867 -3.33514404 3.69515991 C-7.19467849 3.79600031 -10.31021711 3.88532901 -13.58203125 6.07421875 C-13.58203125 5.08421875 -13.58203125 4.09421875 -13.58203125 3.07421875 C-9.41066633 -0.50071826 -5.20819187 -0.24832153 0 0 Z " fill="#FEDBC3" transform="translate(33.58203125,8.92578125)"/>
<path d="M0 0 C12.87 0 25.74 0 39 0 C39 2.31 39 4.62 39 7 C38.01 7 37.02 7 36 7 C36 5.02 36 3.04 36 1 C23.79 1.33 11.58 1.66 -1 2 C-0.67 1.34 -0.34 0.68 0 0 Z " fill="#DB652B" transform="translate(22,13)"/>
<path d="M0 0 C0.66 0 1.32 0 2 0 C2 0.99 2 1.98 2 3 C4.64 3.33 7.28 3.66 10 4 C10 4.33 10 4.66 10 5 C6.7 5.33 3.4 5.66 0 6 C-0.38218767 4.34385343 -0.71395102 2.67542976 -1 1 C-0.67 0.67 -0.34 0.34 0 0 Z " fill="#E36121" transform="translate(62,75)"/>
<path d="M0 0 C0.33 0 0.66 0 1 0 C1.9765625 6.0546875 1.9765625 6.0546875 2 8 C0 10 0 10 -2.625 10.125 C-3.40875 10.08375 -4.1925 10.0425 -5 10 C-4.34 9.67 -3.68 9.34 -3 9 C-2.09274566 6.88672575 -2.09274566 6.88672575 -1.375 4.4375 C-1.11460938 3.61121094 -0.85421875 2.78492187 -0.5859375 1.93359375 C-0.39257812 1.29550781 -0.19921875 0.65742187 0 0 Z " fill="#FDEBD9" transform="translate(79,71)"/>
<path d="M0 0 C0 0.66 0 1.32 0 2 C-3.3 3.32 -6.6 4.64 -10 6 C-10 5.01 -10 4.02 -10 3 C-6.62637846 0.39749195 -4.23092172 -0.36265043 0 0 Z " fill="#FEF2E1" transform="translate(30,9)"/>
</svg>
